<?xml version="1.0" encoding="UTF-8"?>
<svg id="_レイヤー_2" data-name="レイヤー 2" xmlns="http://www.w3.org/2000/svg" viewBox="0 0 181.2 125.16">
  <defs>
    <style>
      .cls-1 {
        fill: #292e86;
      }
    </style>
  </defs>
  <g id="_レイヤー_1-2" data-name="レイヤー 1">
    <g>
      <g>
        <path class="cls-1" d="M36.2,79.83h0l.71-.89c-.24.3-.47.59-.71.89Z"/>
        <path class="cls-1" d="M36.91,78.94l-.71.89h0c1.1-1.37,2.2-2.75,3.3-4.13-.86,1.08-1.72,2.15-2.59,3.24Z"/>
      </g>
      <g>
        <path class="cls-1" d="M129.98,34.46h49.51C173.37,14.92,150.26,0,100.01,0L35.98,80.13s0,.02,30.9.02c8.4,0,16.34-3.82,21.58-10.37l19.93-24.94c5.24-6.56,13.18-10.37,21.58-10.37Z"/>
        <path class="cls-1" d="M130.17,55.7l-19.73,24.67c-5.24,6.56-13.18,10.37-21.57,10.37-16.35,0-44.08,0-61.38,0L0,125.16s47.26,0,100.01,0c37.61,0,81.79-44.01,81.18-79.83h-29.44c-8.39,0-16.33,3.82-21.58,10.37Z"/>
      </g>
      <polygon class="cls-1" points="71.57 0 44.47 34.4 72.52 34.4 100.01 0 71.57 0"/>
      <polygon class="cls-1" points="41.24 0 14.14 34.4 34.3 34.4 61.79 0 41.24 0"/>
    </g>
  </g>
</svg>