<?xml version="1.0" encoding="UTF-8"?>
<svg id="_レイヤー_1" data-name="レイヤー 1" xmlns="http://www.w3.org/2000/svg" viewBox="0 0 711.67 145.45">
  <defs>
    <style>
      .cls-1 {
        fill: #292e86;
      }
    </style>
  </defs>
  <g>
    <g>
      <path class="cls-1" d="M44.15,91.17h0l.76-.95c-.26.32-.51.63-.76.95Z"/>
      <path class="cls-1" d="M44.92,90.21l-.76.95h0c1.18-1.47,2.36-2.95,3.54-4.42-.93,1.16-1.84,2.31-2.77,3.47Z"/>
    </g>
    <g>
      <path class="cls-1" d="M144.69,42.53h53.07c-6.55-20.95-31.32-36.94-85.19-36.94L43.93,91.48s0,.02,33.13.02c9,0,17.52-4.09,23.14-11.12l21.37-26.73c5.62-7.03,14.13-11.12,23.13-11.12Z"/>
      <path class="cls-1" d="M144.9,65.3l-21.15,26.45c-5.62,7.03-14.13,11.12-23.13,11.12H34.82s-29.47,36.88-29.47,36.88c0,0,50.66,0,107.21,0,40.32,0,87.68-47.18,87.03-85.58h-31.56c-9,0-17.51,4.09-23.13,11.12Z"/>
    </g>
    <polygon class="cls-1" points="82.07 5.59 53.02 42.47 83.09 42.47 112.56 5.59 82.07 5.59"/>
    <polygon class="cls-1" points="49.56 5.59 20.51 42.47 42.12 42.47 71.59 5.59 49.56 5.59"/>
  </g>
  <g>
    <polygon class="cls-1" points="592.26 55.28 564.73 55.28 533.91 139.02 557.72 139.02 578.12 80.48 599.27 139.02 623.08 139.02 592.26 55.28"/>
    <path class="cls-1" d="M383,54.43c-15.73,0-22.74,1.28-29.43,6.48-6.48,4.99-8.5,12.22-8.5,35.39,0,18.49.53,25.82,5.95,33.79,6.16,9.03,16.05,9.78,35.7,9.78,7.33,0,12.33-.32,15.51-.53,8.5-.64,17.85-4.68,21.25-13.6,2.44-6.48,2.44-7.76,2.55-34.43h-41.44v17h20.4c.11,3.83-.11,5.1-.64,6.69-2.02,5.42-6.8,5.42-18.92,5.42-19.34,0-19.34-3.83-19.34-19.23,0-4.78,0-17.11,1.17-21.15,1.81-6.16,6.38-6.16,18.28-6.16h39.15c-3.61-18.27-17.92-19.45-41.7-19.45Z"/>
    <path class="cls-1" d="M441.34,55.28v83.74h21.47v-62.27c0-11.85-9.61-21.47-21.47-21.47Z"/>
    <path class="cls-1" d="M309.57,55.28v83.74h21.47v-62.27c0-11.85-9.61-21.47-21.47-21.47Z"/>
    <path class="cls-1" d="M682.79,88.43l-25.08-2.44c-5.74-.53-7.54-1.91-7.54-5.63,0-7.12,5.95-7.12,16.68-7.12h19.29c-.37-3.67,14.72-6.26,13.23-8.61-5.53-8.61-15.83-10.2-32.52-10.2-19.98,0-36.87,1.28-36.87,25.93,0,6.8,1.49,13.81,6.59,18.6,3.93,3.61,11.05,4.36,11.9,4.46l30.39,2.98c5.21.53,5.95,4.04,5.95,6.69,0,7.12-4.04,7.97-16.47,7.97l-25.45,6.96c.59,4.8-10.57,1.29-6.96,4.83,4.25,4.14,10.31,7.01,32.41,7.01,24.44,0,37.09-4.68,37.09-26.88,0-6.59-.85-12.54-6.27-17.75-3.19-2.98-8.61-6.06-16.36-6.8Z"/>
    <path class="cls-1" d="M529.97,55.28h-56.43s0,19.23,0,19.23h27.2v64.5h21.25v-64.5h27.2c0-10.62-8.61-19.23-19.23-19.23Z"/>
    <rect class="cls-1" x="666.85" y="54.43" width="38.57" height="18.81"/>
    <rect class="cls-1" x="386.13" y="54.43" width="38.57" height="18.81"/>
    <rect class="cls-1" x="629.98" y="121.06" width="38.36" height="18.81"/>
    <path class="cls-1" d="M265.26,55.28h-50.37v55.63h21.25v-36.18h26.35c9.56,0,11.8,2.76,11.8,20.08,0,22.21-.96,24.76-12.11,24.76h-47.29v19.45h49.73c4.25,0,15.83,0,21.78-6.06,7.76-7.65,9.14-20.19,9.14-36.55,0-30.92-6.16-41.12-30.29-41.12Z"/>
  </g>
</svg>