<?xml version="1.0" encoding="UTF-8"?>
<svg id="_レイヤー_1" xmlns="http://www.w3.org/2000/svg" version="1.1" viewBox="0 0 711.7 145.4">
  <!-- Generator: Adobe Illustrator 30.0.0, SVG Export Plug-In . SVG Version: 2.1.1 Build 123)  -->
  <defs>
    <style>
      .st0 {
        fill: #fff;
      }
    </style>
  </defs>
  <g>
    <g>
      <path class="st0" d="M44.2,91.2h0l.8-.9c-.3.3-.5.6-.8.9Z"/>
      <path class="st0" d="M44.9,90.2l-.8.9h0c1.2-1.5,2.4-2.9,3.5-4.4-.9,1.2-1.8,2.3-2.8,3.5h0Z"/>
    </g>
    <g>
      <path class="st0" d="M144.7,42.5h53.1c-6.6-21-31.3-36.9-85.2-36.9L43.9,91.5s0,0,33.1,0,17.5-4.1,23.1-11.1l21.4-26.7c5.6-7,14.1-11.1,23.1-11.1h0Z"/>
      <path class="st0" d="M144.9,65.3l-21.2,26.4c-5.6,7-14.1,11.1-23.1,11.1H34.8l-29.5,36.9h107.2c40.3,0,87.7-47.2,87-85.6h-31.6c-9,0-17.5,4.1-23.1,11.1h0Z"/>
    </g>
    <polygon class="st0" points="82.1 5.6 53 42.5 83.1 42.5 112.6 5.6 82.1 5.6"/>
    <polygon class="st0" points="49.6 5.6 20.5 42.5 42.1 42.5 71.6 5.6 49.6 5.6"/>
  </g>
  <g>
    <polygon class="st0" points="592.3 55.3 564.7 55.3 533.9 139 557.7 139 578.1 80.5 599.3 139 623.1 139 592.3 55.3"/>
    <path class="st0" d="M383,54.4c-15.7,0-22.7,1.3-29.4,6.5-6.5,5-8.5,12.2-8.5,35.4s.5,25.8,6,33.8c6.2,9,16,9.8,35.7,9.8s12.3-.3,15.5-.5c8.5-.6,17.9-4.7,21.2-13.6,2.4-6.5,2.4-7.8,2.5-34.4h-41.4v17h20.4c.1,3.8-.1,5.1-.6,6.7-2,5.4-6.8,5.4-18.9,5.4-19.3,0-19.3-3.8-19.3-19.2s0-17.1,1.2-21.2c1.8-6.2,6.4-6.2,18.3-6.2h39.1c-3.6-18.3-17.9-19.5-41.7-19.5h0Z"/>
    <path class="st0" d="M441.3,55.3v83.7h21.5v-62.3c0-11.8-9.6-21.5-21.5-21.5h0Z"/>
    <path class="st0" d="M309.6,55.3v83.7h21.5v-62.3c0-11.8-9.6-21.5-21.5-21.5h0Z"/>
    <path class="st0" d="M682.8,88.4l-25.1-2.4c-5.7-.5-7.5-1.9-7.5-5.6,0-7.1,6-7.1,16.7-7.1h19.3c-.4-3.7,14.7-6.3,13.2-8.6-5.5-8.6-15.8-10.2-32.5-10.2s-36.9,1.3-36.9,25.9,1.5,13.8,6.6,18.6c3.9,3.6,11,4.4,11.9,4.5l30.4,3c5.2.5,6,4,6,6.7,0,7.1-4,8-16.5,8l-25.5,7c.6,4.8-10.6,1.3-7,4.8,4.2,4.1,10.3,7,32.4,7s37.1-4.7,37.1-26.9-.8-12.5-6.3-17.8c-3.2-3-8.6-6.1-16.4-6.8h0Z"/>
    <path class="st0" d="M530,55.3h-56.4v19.2h27.2v64.5h21.2v-64.5h27.2c0-10.6-8.6-19.2-19.2-19.2h0Z"/>
    <rect class="st0" x="666.8" y="54.4" width="38.6" height="18.8"/>
    <rect class="st0" x="386.1" y="54.4" width="38.6" height="18.8"/>
    <rect class="st0" x="630" y="121.1" width="38.4" height="18.8"/>
    <path class="st0" d="M265.3,55.3h-50.4v55.6h21.2v-36.2h26.4c9.6,0,11.8,2.8,11.8,20.1s-1,24.8-12.1,24.8h-47.3v19.4h49.7c4.2,0,15.8,0,21.8-6.1,7.8-7.7,9.1-20.2,9.1-36.6,0-30.9-6.2-41.1-30.3-41.1h0Z"/>
  </g>
</svg>